<?xml version="1.0" encoding="UTF-8"?>
<!DOCTYPE svg PUBLIC "-//W3C//DTD SVG 1.0//EN" "http://www.w3.org/TR/2001/REC-SVG-20010904/DTD/svg10.dtd">
<!-- Creator: CorelDRAW 2019 (64-Bit) -->
<svg xmlns="http://www.w3.org/2000/svg" xml:space="preserve" width="2.13701in" height="0.908185in" version="1.0" shape-rendering="geometricPrecision" text-rendering="geometricPrecision" image-rendering="optimizeQuality" fill-rule="evenodd" clip-rule="evenodd"
viewBox="0 0 2136.95 908.16"
 xmlns:xlink="http://www.w3.org/1999/xlink">
 <g id="Layer_x0020_1">
  <metadata id="CorelCorpID_0Corel-Layer"/>
  <path fill="white" d="M1172.61 386.16c6.17,-22.2 -19.05,-62.46 -67.42,-54.79 -52.18,11.98 -30.93,81.15 -128.62,91.48 -92.28,0.65 -107.77,-60.85 -121.8,-92.53 -0.55,-1.3 -1.76,-1.96 -2.76,-2.06 -1.05,91.32 74.53,166.11 165.41,166.11 71.23,0 131.93,-45.06 155.24,-108.17l-0.06 -0.05zm-40.75 -92.23c4.91,0 8.87,3.96 8.87,8.87 0,4.91 -3.96,8.87 -8.87,8.87 -4.91,0 -8.87,-3.96 -8.87,-8.87 0,-4.91 3.96,-8.87 8.87,-8.87zm-126.11 -16.14c10.93,0 19.75,8.82 19.75,19.7 0,10.88 -8.82,19.75 -19.75,19.75 -10.88,0 -19.7,-8.82 -19.7,-19.75 0,-10.88 8.82,-19.7 19.7,-19.7zm4.66 8.07c2.2,-1.35 5.76,0.25 7.87,3.71 2.11,3.41 2.06,7.32 -0.15,8.72 -2.2,1.35 -5.76,-0.25 -7.87,-3.71 -2.15,-3.41 -2.06,-7.32 0.15,-8.72zm-50.42 43.66c5.61,0 10.13,4.51 10.13,10.13 0,5.61 -4.51,10.13 -10.13,10.13 -5.61,0 -10.13,-4.51 -10.13,-10.13 0,-5.61 4.51,-10.13 10.13,-10.13zm-69.17 -21.7c15.04,-6.62 29.63,-4.56 34.09,7.97 5.36,19.75 14.54,34.84 27.62,45.11 30.83,22.61 63.56,20.75 98.24,-5.52 -19.5,26.87 -43.61,41.5 -72.48,43.91 -47.97,1.56 -81.25,-19.5 -99.8,-63.26 -4.01,-9.42 1.25,-21.76 12.28,-28.22l0.05 0z"/>
  <path fill="#000066" d="M1018.43 156.5c95.34,0 172.63,77.29 172.63,172.63 0,95.34 -77.29,172.63 -172.63,172.63 -95.34,0 -172.63,-77.29 -172.63,-172.63 0,-95.34 77.29,-172.63 172.63,-172.63zm242.7 -49.42c23.96,18.95 58.24,17.04 79.8,-4.56 23.46,-23.46 23.46,-61.45 0,-84.91 -23.46,-23.46 -61.5,-23.46 -84.91,0 -4.61,4.61 -4.61,12.13 0,16.74 4.61,4.61 12.13,4.61 16.74,0 14.18,-14.24 37.24,-14.18 51.43,0 14.18,14.18 14.24,37.24 0,51.43 -14.18,14.24 -37.24,14.18 -51.43,0 -7.67,-7.67 -20.2,-7.67 -27.82,0l-6.46 6.42c-4.21,-1.91 -8.87,-3.01 -13.78,-3.01 -129.77,0 -282.8,0 -412.57,0 -18.5,0 -33.63,15.14 -33.63,33.63 0,18.5 15.19,33.63 33.63,33.63l39.75 0c-45.21,43.61 -73.33,104.81 -73.33,172.63 0,132.48 107.41,239.9 239.9,239.9 67.77,0 128.97,-28.12 172.63,-73.33l0 39.7c0,18.5 15.14,33.63 33.63,33.63 18.5,0 33.63,-15.14 33.63,-33.63l0 -206.26 0 -204.96 0 -1.3c0,-4.96 -1.1,-9.67 -3.06,-13.93 2.41,-2.26 3.21,-4.31 5.87,-1.85l0 0.05z"/>
  <path fill="#000066" d="M2062.27 773.82l41.05 -88.07c4.11,-8.82 14.64,-12.63 23.46,-8.52 8.82,4.11 12.63,14.64 8.52,23.46l-91.98 197.29c-4.11,8.82 -14.64,12.63 -23.46,8.52 -8.77,-4.11 -12.63,-14.64 -8.52,-23.46l31.43 -67.47 -53.88 -115.49c-4.11,-8.77 -0.25,-19.35 8.52,-23.46 8.82,-4.11 19.35,-0.25 23.46,8.52l41.35 88.67 0.05 0zm-1333.55 -142.45c9.72,0 17.65,7.92 17.65,17.65 0,9.72 -7.92,17.65 -17.65,17.65 -9.72,0 -17.65,-7.87 -17.65,-17.65 0,-9.72 7.87,-17.65 17.65,-17.65zm-257.14 52.88c9.57,-5.41 20.4,-8.37 31.63,-8.37 17.89,0 34.68,7.47 46.72,20.15 12.03,-12.68 28.82,-20.15 46.66,-20.15 35.39,0 64.31,28.92 64.31,64.31l0 87.57c0,9.72 -7.92,17.65 -17.65,17.65 -9.72,0 -17.65,-7.92 -17.65,-17.65l0 -87.57c0,-15.94 -13.13,-29.07 -29.07,-29.07 -15.94,0 -29.02,13.13 -29.02,29.07l0 87.57c0,9.72 -7.92,17.65 -17.65,17.65 -9.72,0 -17.65,-7.92 -17.65,-17.65l0 -87.57c0,-15.94 -13.13,-29.07 -29.07,-29.07 -15.94,0 -29.02,13.13 -29.02,29.07l0 87.67c0,9.72 -7.92,17.65 -17.65,17.65 -9.72,0 -17.65,-7.92 -17.65,-17.65l0 -134.43c0,-9.72 7.92,-17.65 17.65,-17.65 6.37,0 11.93,3.41 15.04,8.47l0.06 0zm-436.48 6.47c13.68,-9.63 30.07,-14.94 47.17,-14.94 45.26,0 82.25,36.99 82.25,82.25l0 69.87c0,9.72 -7.92,17.65 -17.65,17.65 -9.72,0 -17.65,-7.92 -17.65,-17.65l0 -69.87c0,-25.76 -21.2,-46.97 -46.97,-46.97 -25.76,0 -46.97,21.2 -46.97,46.97l0 69.87c0,9.72 -7.92,17.65 -17.65,17.65 -9.72,0 -17.65,-7.92 -17.65,-17.65l0 -134.43c0,-9.72 7.92,-17.65 17.65,-17.65 8.82,0 16.14,6.52 17.44,14.94l0 -0.05zm693.62 -14.94c9.72,0 17.65,7.92 17.65,17.65l0 134.43c0,9.72 -7.92,17.65 -17.65,17.65 -9.72,0 -17.65,-7.92 -17.65,-17.65l0 -134.43c0,-9.72 7.92,-17.65 17.65,-17.65zm575.02 84.86c0,-23.31 0,-46.57 0,-69.87 0,-9.72 7.92,-17.65 17.65,-17.65 9.72,0 17.65,7.92 17.65,17.65 0,23.31 0,46.57 0,69.87 0,45.26 -36.99,82.2 -82.25,82.2 -45.26,0 -82.25,-36.99 -82.25,-82.2 0,-23.31 0,-46.57 0,-69.87 0,-9.72 7.92,-17.65 17.65,-17.65 9.72,0 17.65,7.92 17.65,17.65 0,23.31 0,46.57 0,69.87 0,25.76 21.2,46.97 46.97,46.97 25.76,0 46.97,-21.2 46.97,-46.97l-0.01 0zm120.5 -69.92c13.68,-9.63 30.07,-14.94 47.17,-14.94 45.26,0 82.25,36.99 82.25,82.25l0 69.87c0,9.72 -7.92,17.65 -17.65,17.65 -9.72,0 -17.65,-7.92 -17.65,-17.65l0 -69.87c0,-25.76 -21.2,-46.97 -46.97,-46.97 -25.76,0 -46.97,21.15 -46.97,46.97l0 69.87c0,9.72 -7.92,17.65 -17.65,17.65 -9.72,0 -17.65,-7.92 -17.65,-17.65l0 -134.43c0,-9.72 7.92,-17.65 17.65,-17.65 8.82,0 16.14,6.52 17.44,14.94l0 -0.05zm324.05 150.12c-3.01,-2.76 -4.96,-6.42 -5.56,-10.37 -14.84,11.08 -32.98,17.19 -51.93,17.19 -48.07,0 -87.02,-38.95 -87.02,-87.02 0,-48.07 38.95,-87.02 87.02,-87.02 18.9,0 36.94,6.07 51.73,17.04l0 -59.05c0,-9.72 7.92,-17.65 17.65,-17.65 9.72,0 17.65,7.92 17.65,17.65l0 196.74 -0.05 0.95 -0.1 0.95 -0.2 1.15 -0.2 0.9 -0.35 1.2 -0.3 0.8 -0.35 0.85 -0.4 0.75 -0.35 0.7 -0.45 0.75 -0.5 0.75 -0.55 0.75 -0.7 0.85 -0.6 0.6 -0.45 0.45 -0.85 0.75 -0.3 0.25 -1 0.75 -0.8 0.5 -1 0.55 -0.75 0.4 -0.8 0.35 -0.8 0.3 -0.85 0.25 -0.95 0.25 -1.2 0.25 -0.9 0.1 -0.95 0.05 -0.9 0 -0.9 -0.05 -0.75 -0.05 -0.95 -0.15 -0.95 -0.15 -0.8 -0.2 -0.75 -0.2 -0.8 -0.3 -0.9 -0.35 -0.7 -0.3 -0.8 -0.45 -0.75 -0.45 -0.65 -0.4 -0.65 -0.5c-0.45,-0.35 -0.9,-0.7 -1.35,-1.1l-0.05 -0.05 -0.09 -0zm-5.77 -80.9c-0.35,-28.32 -23.41,-51.08 -51.73,-51.08 -28.57,0 -51.78,23.16 -51.78,51.78 0,28.57 23.16,51.78 51.78,51.78 28.32,0 51.38,-22.76 51.73,-50.98l0 -1.45 0 -0.05zm-860.03 -146.01c9.72,0 17.65,7.92 17.65,17.65l0 196.29c0,9.72 -7.92,17.65 -17.65,17.65 -9.72,0 -17.65,-7.92 -17.65,-17.65l0 -196.29c0,-9.72 7.92,-17.65 17.65,-17.65zm1027.3 97.09c-25.61,0.2 -46.57,21.3 -46.57,46.97l0 69.87c0,9.72 -7.92,17.65 -17.65,17.65 -9.72,0 -17.65,-7.92 -17.65,-17.65l0 -134.43c0,-9.72 7.92,-17.65 17.65,-17.65 8.82,0 16.14,6.52 17.44,14.94 13.68,-9.63 30.07,-14.94 47.17,-14.94l14.13 0c9.72,0 17.65,7.92 17.65,17.65 0,9.72 -7.92,17.65 -17.65,17.65l-14.29 0 -0.25 0 0 -0.05z"/>
  <path fill="white" d="M388.72 827.86l0 -134.43c0,-9.72 -7.92,-17.65 -17.65,-17.65 -8.82,0 -16.19,6.52 -17.44,15.04 -14.84,-11.08 -32.98,-17.19 -51.93,-17.19 -48.07,0 -87.02,39 -87.02,87.02 0,48.07 39,87.02 87.02,87.02 18.95,0 37.09,-6.11 51.93,-17.19 1.25,8.47 8.62,15.04 17.44,15.04 9.72,0 17.65,-7.92 17.65,-17.65l0 -0zm-35.29 -67.47l0 0.5c0,28.52 -23.31,51.48 -51.78,51.48 -28.57,0 -51.78,-23.16 -51.78,-51.78 0,-28.57 23.16,-51.78 51.78,-51.78 28.47,0 51.78,22.96 51.78,51.48l0 0.1z"/>
  <path fill="white" d="M1037.38 708.86c28.47,0 51.78,22.96 51.78,51.48l0 0.5c0,28.52 -23.31,51.48 -51.78,51.48 -28.57,0 -51.78,-23.16 -51.78,-51.78 0,-28.57 23.16,-51.78 51.78,-51.78l0 0.1zm0 -35.29c-48.07,0 -87.02,39 -87.02,87.02 0,48.07 38.95,87.02 87.02,87.02 19,0 37.09,-6.11 51.93,-17.19 1.25,8.47 8.62,15.04 17.44,15.04 9.72,0 17.65,-7.92 17.65,-17.65l0 -134.43c0,-9.72 -7.92,-17.65 -17.65,-17.65 -8.82,0 -16.19,6.52 -17.44,15.04 -14.84,-11.08 -32.98,-17.19 -51.93,-17.19l0 -0z"/>
 </g>
</svg>
