<?xml version="1.0" encoding="UTF-8"?>
<!DOCTYPE svg PUBLIC "-//W3C//DTD SVG 1.0//EN" "http://www.w3.org/TR/2001/REC-SVG-20010904/DTD/svg10.dtd">
<!-- Creator: CorelDRAW 2019 (64-Bit) -->
<svg xmlns="http://www.w3.org/2000/svg" xml:space="preserve" width="2.13701in" height="1.35089in" version="1.0" shape-rendering="geometricPrecision" text-rendering="geometricPrecision" image-rendering="optimizeQuality" fill-rule="evenodd" clip-rule="evenodd"
viewBox="0 0 2136.95 1350.86"
 xmlns:xlink="http://www.w3.org/1999/xlink">
 <g id="Layer_x0020_1">
  <metadata id="CorelCorpID_0Corel-Layer"/>
  <path fill="white" d="M1245.26 655.63c10.47,-37.7 -32.34,-106.04 -114.46,-93.01 -88.59,20.34 -52.51,137.78 -218.37,155.31 -156.67,1.11 -182.97,-103.31 -206.79,-157.1 -0.94,-2.21 -2.98,-3.32 -4.68,-3.49 -1.78,155.05 126.54,282.02 280.84,282.02 120.93,0 223.98,-76.51 263.56,-183.64l-0.09 -0.09zm-69.19 -156.59c8.34,0 15.07,6.72 15.07,15.07 0,8.34 -6.72,15.06 -15.07,15.06 -8.34,0 -15.07,-6.72 -15.07,-15.06 0,-8.34 6.72,-15.07 15.07,-15.07zm-214.11 -27.4c18.55,0 33.53,14.98 33.53,33.45 0,18.47 -14.98,33.53 -33.53,33.53 -18.47,0 -33.44,-14.98 -33.44,-33.53 0,-18.47 14.98,-33.45 33.44,-33.45zm7.92 13.7c3.74,-2.3 9.78,0.43 13.36,6.3 3.58,5.79 3.49,12.42 -0.25,14.81 -3.74,2.3 -9.79,-0.43 -13.36,-6.3 -3.66,-5.79 -3.49,-12.43 0.26,-14.81zm-85.61 74.12c9.53,0 17.19,7.66 17.19,17.19 0,9.53 -7.66,17.19 -17.19,17.19 -9.53,0 -17.19,-7.66 -17.19,-17.19 0,-9.53 7.66,-17.19 17.19,-17.19zm-117.44 -36.85c25.53,-11.24 50.3,-7.75 57.87,13.53 9.11,33.53 24.68,59.15 46.89,76.59 52.34,38.38 107.91,35.23 166.79,-9.36 -33.11,45.61 -74.04,70.46 -123.05,74.55 -81.44,2.64 -137.95,-33.11 -169.44,-107.4 -6.81,-16 2.13,-36.94 20.85,-47.91l0.09 0.01z"/>
  <path fill="#FFCC00" d="M983.49 265.7c161.86,0 293.09,131.23 293.09,293.09 0,161.86 -131.23,293.09 -293.09,293.09 -161.86,0 -293.09,-131.23 -293.09,-293.09 0,-161.86 131.23,-293.09 293.09,-293.09zm412.06 -83.91c40.68,32.17 98.88,28.94 135.48,-7.75 39.83,-39.83 39.83,-104.33 0,-144.16 -39.83,-39.83 -104.42,-39.83 -144.16,0 -7.83,7.83 -7.83,20.59 0,28.42 7.83,7.83 20.59,7.83 28.42,0 24.08,-24.17 63.23,-24.08 87.31,0 24.08,24.08 24.17,63.23 0,87.32 -24.08,24.17 -63.23,24.08 -87.31,0 -13.02,-13.02 -34.3,-13.02 -47.23,0l-10.98 10.89c-7.15,-3.24 -15.07,-5.11 -23.4,-5.11 -220.33,0 -480.14,0 -700.47,0 -31.4,0 -57.1,25.7 -57.1,57.1 0,31.4 25.79,57.1 57.1,57.1l67.48 0c-76.76,74.04 -124.5,177.94 -124.5,293.09 0,224.92 182.37,407.29 407.3,407.29 115.05,0 218.96,-47.74 293.09,-124.5l0 67.4c0,31.4 25.7,57.1 57.1,57.1 31.4,0 57.1,-25.7 57.1,-57.1l0 -350.19 0 -347.98 0 -2.21c0,-8.42 -1.87,-16.42 -5.2,-23.65 4.09,-3.83 5.45,-7.32 9.96,-3.15l0 0.09z"/>
  <path fill="#FFCC00" d="M2062.27 1216.52l41.05 -88.07c4.11,-8.82 14.64,-12.63 23.46,-8.52 8.82,4.11 12.63,14.64 8.52,23.46l-91.98 197.29c-4.11,8.82 -14.64,12.63 -23.46,8.52 -8.77,-4.11 -12.63,-14.64 -8.52,-23.46l31.43 -67.47 -53.88 -115.49c-4.11,-8.77 -0.25,-19.35 8.52,-23.46 8.82,-4.11 19.35,-0.25 23.46,8.52l41.35 88.67 0.05 0zm-1333.55 -142.45c9.72,0 17.65,7.92 17.65,17.65 0,9.72 -7.92,17.65 -17.65,17.65 -9.72,0 -17.65,-7.87 -17.65,-17.65 0,-9.72 7.87,-17.65 17.65,-17.65zm-257.14 52.88c9.57,-5.41 20.4,-8.37 31.63,-8.37 17.89,0 34.68,7.47 46.72,20.15 12.03,-12.68 28.82,-20.15 46.66,-20.15 35.39,0 64.31,28.92 64.31,64.31l0 87.57c0,9.72 -7.92,17.65 -17.65,17.65 -9.72,0 -17.65,-7.92 -17.65,-17.65l0 -87.57c0,-15.94 -13.13,-29.07 -29.07,-29.07 -15.94,0 -29.02,13.13 -29.02,29.07l0 87.57c0,9.72 -7.92,17.65 -17.65,17.65 -9.72,0 -17.65,-7.92 -17.65,-17.65l0 -87.57c0,-15.94 -13.13,-29.07 -29.07,-29.07 -15.94,0 -29.02,13.13 -29.02,29.07l0 87.67c0,9.72 -7.92,17.65 -17.65,17.65 -9.72,0 -17.65,-7.92 -17.65,-17.65l0 -134.43c0,-9.72 7.92,-17.65 17.65,-17.65 6.37,0 11.93,3.41 15.04,8.47l0.06 0zm-436.48 6.47c13.68,-9.63 30.07,-14.94 47.17,-14.94 45.26,0 82.25,36.99 82.25,82.25l0 69.87c0,9.72 -7.92,17.65 -17.65,17.65 -9.72,0 -17.65,-7.92 -17.65,-17.65l0 -69.87c0,-25.76 -21.2,-46.97 -46.97,-46.97 -25.76,0 -46.97,21.2 -46.97,46.97l0 69.87c0,9.72 -7.92,17.65 -17.65,17.65 -9.72,0 -17.65,-7.92 -17.65,-17.65l0 -134.43c0,-9.72 7.92,-17.65 17.65,-17.65 8.82,0 16.14,6.52 17.44,14.94l0 -0.05zm693.62 -14.94c9.72,0 17.65,7.92 17.65,17.65l0 134.43c0,9.72 -7.92,17.65 -17.65,17.65 -9.72,0 -17.65,-7.92 -17.65,-17.65l0 -134.43c0,-9.72 7.92,-17.65 17.65,-17.65zm575.02 84.86c0,-23.31 0,-46.57 0,-69.87 0,-9.72 7.92,-17.65 17.65,-17.65 9.72,0 17.65,7.92 17.65,17.65 0,23.31 0,46.57 0,69.87 0,45.26 -36.99,82.2 -82.25,82.2 -45.26,0 -82.25,-36.99 -82.25,-82.2 0,-23.31 0,-46.57 0,-69.87 0,-9.72 7.92,-17.65 17.65,-17.65 9.72,0 17.65,7.92 17.65,17.65 0,23.31 0,46.57 0,69.87 0,25.76 21.2,46.97 46.97,46.97 25.76,0 46.97,-21.2 46.97,-46.97l-0.01 0zm120.5 -69.92c13.68,-9.63 30.07,-14.94 47.17,-14.94 45.26,0 82.25,36.99 82.25,82.25l0 69.87c0,9.72 -7.92,17.65 -17.65,17.65 -9.72,0 -17.65,-7.92 -17.65,-17.65l0 -69.87c0,-25.76 -21.2,-46.97 -46.97,-46.97 -25.76,0 -46.97,21.15 -46.97,46.97l0 69.87c0,9.72 -7.92,17.65 -17.65,17.65 -9.72,0 -17.65,-7.92 -17.65,-17.65l0 -134.43c0,-9.72 7.92,-17.65 17.65,-17.65 8.82,0 16.14,6.52 17.44,14.94l0 -0.05zm324.05 150.12c-3.01,-2.76 -4.96,-6.42 -5.56,-10.37 -14.84,11.08 -32.98,17.19 -51.93,17.19 -48.07,0 -87.02,-38.95 -87.02,-87.02 0,-48.07 38.95,-87.02 87.02,-87.02 18.9,0 36.94,6.07 51.73,17.04l0 -59.05c0,-9.72 7.92,-17.65 17.65,-17.65 9.72,0 17.65,7.92 17.65,17.65l0 196.74 -0.05 0.95 -0.1 0.95 -0.2 1.15 -0.2 0.9 -0.35 1.2 -0.3 0.8 -0.35 0.85 -0.4 0.75 -0.35 0.7 -0.45 0.75 -0.5 0.75 -0.55 0.75 -0.7 0.85 -0.6 0.6 -0.45 0.45 -0.85 0.75 -0.3 0.25 -1 0.75 -0.8 0.5 -1 0.55 -0.75 0.4 -0.8 0.35 -0.8 0.3 -0.85 0.25 -0.95 0.25 -1.2 0.25 -0.9 0.1 -0.95 0.05 -0.9 0 -0.9 -0.05 -0.75 -0.05 -0.95 -0.15 -0.95 -0.15 -0.8 -0.2 -0.75 -0.2 -0.8 -0.3 -0.9 -0.35 -0.7 -0.3 -0.8 -0.45 -0.75 -0.45 -0.65 -0.4 -0.65 -0.5c-0.45,-0.35 -0.9,-0.7 -1.35,-1.1l-0.05 -0.05 -0.09 -0zm-5.77 -80.9c-0.35,-28.32 -23.41,-51.08 -51.73,-51.08 -28.57,0 -51.78,23.16 -51.78,51.78 0,28.57 23.16,51.78 51.78,51.78 28.32,0 51.38,-22.76 51.73,-50.98l0 -1.45 0 -0.05zm-860.03 -146.01c9.72,0 17.65,7.92 17.65,17.65l0 196.29c0,9.72 -7.92,17.65 -17.65,17.65 -9.72,0 -17.65,-7.92 -17.65,-17.65l0 -196.29c0,-9.72 7.92,-17.65 17.65,-17.65zm1027.3 97.09c-25.61,0.2 -46.57,21.3 -46.57,46.97l0 69.87c0,9.72 -7.92,17.65 -17.65,17.65 -9.72,0 -17.65,-7.92 -17.65,-17.65l0 -134.43c0,-9.72 7.92,-17.65 17.65,-17.65 8.82,0 16.14,6.52 17.44,14.94 13.68,-9.63 30.07,-14.94 47.17,-14.94l14.13 0c9.72,0 17.65,7.92 17.65,17.65 0,9.72 -7.92,17.65 -17.65,17.65l-14.29 0 -0.25 0 0 -0.05z"/>
  <path fill="white" d="M388.72 1270.55l0 -134.43c0,-9.72 -7.92,-17.65 -17.65,-17.65 -8.82,0 -16.19,6.52 -17.44,15.04 -14.84,-11.08 -32.98,-17.19 -51.93,-17.19 -48.07,0 -87.02,39 -87.02,87.02 0,48.07 39,87.02 87.02,87.02 18.95,0 37.09,-6.11 51.93,-17.19 1.25,8.47 8.62,15.04 17.44,15.04 9.72,0 17.65,-7.92 17.65,-17.65l0 -0zm-35.29 -67.47l0 0.5c0,28.52 -23.31,51.48 -51.78,51.48 -28.57,0 -51.78,-23.16 -51.78,-51.78 0,-28.57 23.16,-51.78 51.78,-51.78 28.47,0 51.78,22.96 51.78,51.48l0 0.1z"/>
  <path fill="white" d="M1037.38 1151.56c28.47,0 51.78,22.96 51.78,51.48l0 0.5c0,28.52 -23.31,51.48 -51.78,51.48 -28.57,0 -51.78,-23.16 -51.78,-51.78 0,-28.57 23.16,-51.78 51.78,-51.78l0 0.1zm0 -35.29c-48.07,0 -87.02,39 -87.02,87.02 0,48.07 38.95,87.02 87.02,87.02 19,0 37.09,-6.11 51.93,-17.19 1.25,8.47 8.62,15.04 17.44,15.04 9.72,0 17.65,-7.92 17.65,-17.65l0 -134.43c0,-9.72 -7.92,-17.65 -17.65,-17.65 -8.82,0 -16.19,6.52 -17.44,15.04 -14.84,-11.08 -32.98,-17.19 -51.93,-17.19l0 -0z"/>
 </g>
</svg>
