<?xml version="1.0" encoding="UTF-8"?>
<!DOCTYPE svg PUBLIC "-//W3C//DTD SVG 1.0//EN" "http://www.w3.org/TR/2001/REC-SVG-20010904/DTD/svg10.dtd">
<!-- Creator: CorelDRAW 2019 (64-Bit) -->
<svg xmlns="http://www.w3.org/2000/svg" xml:space="preserve" width="2.13698in" height="0.908173in" version="1.0" shape-rendering="geometricPrecision" text-rendering="geometricPrecision" image-rendering="optimizeQuality" fill-rule="evenodd" clip-rule="evenodd"
viewBox="0 0 426.32 181.18"
 xmlns:xlink="http://www.w3.org/1999/xlink">
 <g id="__x0023_Layer_x0020_1">
  <metadata id="CorelCorpID_0Corel-Layer"/>
  <path fill="#00A2E9" d="M233.93 77.05c1.23,-4.43 -3.8,-12.46 -13.45,-10.93 -10.41,2.39 -6.17,16.19 -25.66,18.25 -18.41,0.13 -21.5,-12.14 -24.3,-18.46 -0.11,-0.26 -0.35,-0.39 -0.55,-0.41 -0.21,18.22 14.87,33.14 33,33.14 14.21,0 26.32,-8.99 30.97,-21.58zm-8.13 -18.4c0.98,0 1.77,0.79 1.77,1.77 0,0.98 -0.79,1.77 -1.77,1.77 -0.98,0 -1.77,-0.79 -1.77,-1.77 0,-0.98 0.79,-1.77 1.77,-1.77zm-25.16 -3.22c2.18,0 3.94,1.76 3.94,3.93 0,2.17 -1.76,3.94 -3.94,3.94 -2.17,0 -3.93,-1.76 -3.93,-3.94 0,-2.17 1.76,-3.93 3.93,-3.93zm0.93 1.61c0.44,-0.27 1.15,0.05 1.57,0.74 0.42,0.68 0.41,1.46 -0.03,1.74 -0.44,0.27 -1.15,-0.05 -1.57,-0.74 -0.43,-0.68 -0.41,-1.46 0.03,-1.74zm-10.06 8.71c1.12,0 2.02,0.9 2.02,2.02 0,1.12 -0.9,2.02 -2.02,2.02 -1.12,0 -2.02,-0.9 -2.02,-2.02 0,-1.12 0.9,-2.02 2.02,-2.02zm-13.8 -4.33c3,-1.32 5.91,-0.91 6.8,1.59 1.07,3.94 2.9,6.95 5.51,9 6.15,4.51 12.68,4.14 19.6,-1.1 -3.89,5.36 -8.7,8.28 -14.46,8.76 -9.57,0.31 -16.21,-3.89 -19.91,-12.62 -0.8,-1.88 0.25,-4.34 2.45,-5.63z"/>
  <path fill="#000066" d="M203.17 31.23c19.02,0 34.44,15.42 34.44,34.44 0,19.02 -15.42,34.44 -34.44,34.44 -19.02,0 -34.44,-15.42 -34.44,-34.44 0,-19.02 15.42,-34.44 34.44,-34.44zm48.42 -9.86c4.78,3.78 11.62,3.4 15.92,-0.91 4.68,-4.68 4.68,-12.26 0,-16.94 -4.68,-4.68 -12.27,-4.68 -16.94,-0 -0.92,0.92 -0.92,2.42 -0,3.34 0.92,0.92 2.42,0.92 3.34,-0 2.83,-2.84 7.43,-2.83 10.26,0 2.83,2.83 2.84,7.43 0,10.26 -2.83,2.84 -7.43,2.83 -10.26,-0 -1.53,-1.53 -4.03,-1.53 -5.55,0l-1.29 1.28c-0.84,-0.38 -1.77,-0.6 -2.75,-0.6 -25.89,0 -56.42,0 -82.31,0 -3.69,0 -6.71,3.02 -6.71,6.71 0,3.69 3.03,6.71 6.71,6.71l7.93 0c-9.02,8.7 -14.63,20.91 -14.63,34.44 0,26.43 21.43,47.86 47.86,47.86 13.52,0 25.73,-5.61 34.44,-14.63l0 7.92c0,3.69 3.02,6.71 6.71,6.71 3.69,0 6.71,-3.02 6.71,-6.71l0 -41.15 0 -40.89 0 -0.26c0,-0.99 -0.22,-1.93 -0.61,-2.78 0.48,-0.45 0.64,-0.86 1.17,-0.37z"/>
  <path fill="#000066" d="M411.42 154.39l8.19 -17.57c0.82,-1.76 2.92,-2.52 4.68,-1.7 1.76,0.82 2.52,2.92 1.7,4.68l-18.35 39.36c-0.82,1.76 -2.92,2.52 -4.68,1.7 -1.75,-0.82 -2.52,-2.92 -1.7,-4.68l6.27 -13.46 -10.75 -23.04c-0.82,-1.75 -0.05,-3.86 1.7,-4.68 1.76,-0.82 3.86,-0.05 4.68,1.7l8.25 17.69zm-266.05 -28.42c1.94,0 3.52,1.58 3.52,3.52 0,1.94 -1.58,3.52 -3.52,3.52 -1.94,0 -3.52,-1.57 -3.52,-3.52 0,-1.94 1.57,-3.52 3.52,-3.52zm-51.3 10.55c1.91,-1.08 4.07,-1.67 6.31,-1.67 3.57,0 6.92,1.49 9.32,4.02 2.4,-2.53 5.75,-4.02 9.31,-4.02 7.06,0 12.83,5.77 12.83,12.83l0 17.47c0,1.94 -1.58,3.52 -3.52,3.52 -1.94,0 -3.52,-1.58 -3.52,-3.52l0 -17.47c0,-3.18 -2.62,-5.8 -5.8,-5.8 -3.18,0 -5.79,2.62 -5.79,5.8l0 17.47c0,1.94 -1.58,3.52 -3.52,3.52 -1.94,0 -3.52,-1.58 -3.52,-3.52l0 -17.47c0,-3.18 -2.62,-5.8 -5.8,-5.8 -3.18,0 -5.79,2.62 -5.79,5.8l0 17.49c0,1.94 -1.58,3.52 -3.52,3.52 -1.94,0 -3.52,-1.58 -3.52,-3.52l0 -26.82c0,-1.94 1.58,-3.52 3.52,-3.52 1.27,0 2.38,0.68 3,1.69zm-87.08 1.29c2.73,-1.92 6,-2.98 9.41,-2.98 9.03,0 16.41,7.38 16.41,16.41l0 13.94c0,1.94 -1.58,3.52 -3.52,3.52 -1.94,0 -3.52,-1.58 -3.52,-3.52l0 -13.94c0,-5.14 -4.23,-9.37 -9.37,-9.37 -5.14,0 -9.37,4.23 -9.37,9.37l0 13.94c0,1.94 -1.58,3.52 -3.52,3.52 -1.94,0 -3.52,-1.58 -3.52,-3.52l0 -26.82c0,-1.94 1.58,-3.52 3.52,-3.52 1.76,0 3.22,1.3 3.48,2.98zm138.38 -2.98c1.94,0 3.52,1.58 3.52,3.52l0 26.82c0,1.94 -1.58,3.52 -3.52,3.52 -1.94,0 -3.52,-1.58 -3.52,-3.52l0 -26.82c0,-1.94 1.58,-3.52 3.52,-3.52zm114.72 16.93c0,-4.65 -0,-9.29 -0,-13.94 0,-1.94 1.58,-3.52 3.52,-3.52 1.94,0 3.52,1.58 3.52,3.52 0,4.65 0,9.29 0,13.94 0,9.03 -7.38,16.4 -16.41,16.4 -9.03,0 -16.41,-7.38 -16.41,-16.4 0,-4.65 0,-9.29 0,-13.94 0,-1.94 1.58,-3.52 3.52,-3.52 1.94,0 3.52,1.58 3.52,3.52 0,4.65 -0,9.29 -0,13.94 0,5.14 4.23,9.37 9.37,9.37 5.14,0 9.37,-4.23 9.37,-9.37zm24.04 -13.95c2.73,-1.92 6,-2.98 9.41,-2.98 9.03,0 16.41,7.38 16.41,16.41l0 13.94c0,1.94 -1.58,3.52 -3.52,3.52 -1.94,0 -3.52,-1.58 -3.52,-3.52l0 -13.94c0,-5.14 -4.23,-9.37 -9.37,-9.37 -5.14,0 -9.37,4.22 -9.37,9.37l0 13.94c0,1.94 -1.58,3.52 -3.52,3.52 -1.94,0 -3.52,-1.58 -3.52,-3.52l0 -26.82c0,-1.94 1.58,-3.52 3.52,-3.52 1.76,0 3.22,1.3 3.48,2.98zm64.65 29.95c-0.6,-0.55 -0.99,-1.28 -1.11,-2.07 -2.96,2.21 -6.58,3.43 -10.36,3.43 -9.59,0 -17.36,-7.77 -17.36,-17.36 0,-9.59 7.77,-17.36 17.36,-17.36 3.77,0 7.37,1.21 10.32,3.4l0 -11.78c0,-1.94 1.58,-3.52 3.52,-3.52 1.94,0 3.52,1.58 3.52,3.52l-0 39.25 -0.01 0.19 -0.02 0.19 -0.04 0.23 -0.04 0.18 -0.07 0.24 -0.06 0.16 -0.07 0.17 -0.08 0.15 -0.07 0.14 -0.09 0.15 -0.1 0.15 -0.11 0.15 -0.14 0.17 -0.12 0.12 -0.09 0.09 -0.17 0.15 -0.06 0.05 -0.2 0.15 -0.16 0.1 -0.2 0.11 -0.15 0.08 -0.16 0.07 -0.16 0.06 -0.17 0.05 -0.19 0.05 -0.24 0.05 -0.18 0.02 -0.19 0.01 -0.18 0 -0.18 -0.01 -0.15 -0.01 -0.19 -0.03 -0.19 -0.03 -0.16 -0.04 -0.15 -0.04 -0.16 -0.06 -0.18 -0.07 -0.14 -0.06 -0.16 -0.09 -0.15 -0.09 -0.13 -0.08 -0.13 -0.1c-0.09,-0.07 -0.18,-0.14 -0.27,-0.22l-0.01 -0.01zm-1.15 -16.14c-0.07,-5.65 -4.67,-10.19 -10.32,-10.19 -5.7,0 -10.33,4.62 -10.33,10.33 0,5.7 4.62,10.33 10.33,10.33 5.65,0 10.25,-4.54 10.32,-10.17l0 -0.29zm-171.58 -29.13c1.94,0 3.52,1.58 3.52,3.52l0 39.16c0,1.94 -1.58,3.52 -3.52,3.52 -1.94,0 -3.52,-1.58 -3.52,-3.52l0 -39.16c0,-1.94 1.58,-3.52 3.52,-3.52zm204.95 19.37c-5.11,0.04 -9.29,4.25 -9.29,9.37l0 13.94c0,1.94 -1.58,3.52 -3.52,3.52 -1.94,0 -3.52,-1.58 -3.52,-3.52l0 -26.82c0,-1.94 1.58,-3.52 3.52,-3.52 1.76,0 3.22,1.3 3.48,2.98 2.73,-1.92 6,-2.98 9.41,-2.98l2.82 0c1.94,0 3.52,1.58 3.52,3.52 0,1.94 -1.58,3.52 -3.52,3.52l-2.85 0 -0.05 -0z"/>
  <path fill="#00A2E9" d="M77.54 165.17l0 -26.82c0,-1.94 -1.58,-3.52 -3.52,-3.52 -1.76,0 -3.23,1.3 -3.48,3 -2.96,-2.21 -6.58,-3.43 -10.36,-3.43 -9.59,0 -17.36,7.78 -17.36,17.36 0,9.59 7.78,17.36 17.36,17.36 3.78,0 7.4,-1.22 10.36,-3.43 0.25,1.69 1.72,3 3.48,3 1.94,0 3.52,-1.58 3.52,-3.52zm-7.04 -13.46l0 0.1c0,5.69 -4.65,10.27 -10.33,10.27 -5.7,0 -10.33,-4.62 -10.33,-10.33 0,-5.7 4.62,-10.33 10.33,-10.33 5.68,0 10.33,4.58 10.33,10.27z"/>
  <path fill="#00A2E9" d="M206.95 141.43c5.68,0 10.33,4.58 10.33,10.27l0 0.1c0,5.69 -4.65,10.27 -10.33,10.27 -5.7,0 -10.33,-4.62 -10.33,-10.33 0,-5.7 4.62,-10.33 10.33,-10.33zm0 -7.04c-9.59,0 -17.36,7.78 -17.36,17.36 0,9.59 7.77,17.36 17.36,17.36 3.79,0 7.4,-1.22 10.36,-3.43 0.25,1.69 1.72,3 3.48,3 1.94,0 3.52,-1.58 3.52,-3.52l0 -26.82c0,-1.94 -1.58,-3.52 -3.52,-3.52 -1.76,0 -3.23,1.3 -3.48,3 -2.96,-2.21 -6.58,-3.43 -10.36,-3.43z"/>
 </g>
</svg>
