<?xml version="1.0" encoding="UTF-8"?>
<!DOCTYPE svg PUBLIC "-//W3C//DTD SVG 1.0//EN" "http://www.w3.org/TR/2001/REC-SVG-20010904/DTD/svg10.dtd">
<!-- Creator: CorelDRAW 2019 (64-Bit) -->
<svg xmlns="http://www.w3.org/2000/svg" xml:space="preserve" width="6.68741in" height="6.55999in" version="1.0" shape-rendering="geometricPrecision" text-rendering="geometricPrecision" image-rendering="optimizeQuality" fill-rule="evenodd" clip-rule="evenodd"
viewBox="0 0 8292.15 8134.16"
 xmlns:xlink="http://www.w3.org/1999/xlink">
 <g id="Layer_x0020_1">
  <metadata id="CorelCorpID_0Corel-Layer"/>
  <g id="_2515377392720">
   <path fill="#00AFEF" d="M5634.09 5520.94c88.12,-317.39 -272.35,-892.74 -963.91,-783.5 -746.12,171.11 -442.15,1160.02 -1838.96,1308.01 -1319.42,9.19 -1540.52,-869.8 -1741.19,-1322.79 -8.16,-18.55 -24.77,-28.25 -39.44,-29.56 -15.01,1305.72 1065.22,2374.42 2364.38,2374.42 1018.36,0 1886.22,-643.84 2219.13,-1546.57zm-582.55 -1318.68c69.98,0 126.71,56.78 126.71,126.76 0,69.97 -56.73,126.64 -126.71,126.64 -69.97,0 -126.7,-56.67 -126.7,-126.64 0,-69.98 56.73,-126.76 126.7,-126.76zm-1803.06 -231.09c155.87,0 282,126.19 282,281.89 0,155.81 -126.13,282 -282,282 -155.75,0 -282,-126.19 -282,-282 0,-155.7 126.25,-281.89 282,-281.89zm66.72 115.4c31.73,-19.63 82.13,3.93 112.49,52.73 30.42,49.03 29.39,104.56 -2.34,124.42 -31.73,19.69 -82.18,-3.94 -112.49,-52.74 -30.54,-48.85 -29.39,-104.5 2.34,-124.42zm-720.66 624.15c80.07,0 144.91,64.72 144.91,144.68 0,80.19 -64.84,144.97 -144.91,144.97 -79.96,0 -144.8,-64.78 -144.8,-144.97 0,-79.96 64.83,-144.68 144.8,-144.68zm-988.68 -310.53c214.99,-94.52 423.42,-65.23 487.29,114.03 76.31,282.62 207.86,497.68 394.95,645.21 440.66,323.15 908.84,297.01 1404.52,-79.05 -278.41,384.11 -623.59,593.16 -1035.77,627.64 -686.02,22.43 -1161.5,-278.92 -1426.43,-904.1 -57.07,-134.69 17.92,-310.94 175.45,-403.74z"/>
   <path fill="black" d="M3430.04 2237.38c1362.8,0 2467.59,1104.66 2467.59,2467.53 0,1362.79 -1104.79,2467.56 -2467.59,2467.56 -1362.77,0 -2467.56,-1104.76 -2467.56,-2467.56 0,-1362.87 1104.79,-2467.53 2467.56,-2467.53zm3469.57 -706.75c342.73,270.94 832.7,243.31 1141.06,-65.05 335.31,-335.3 335.31,-878.75 0,-1214.06 -335.3,-335.3 -878.89,-335.37 -1214.13,-0.06 -65.93,65.8 -65.96,173.5 -0.07,239.36 65.9,66 173.34,65.86 239.4,-0.1 203.09,-203.12 532.37,-202.9 735.43,0.17 203.06,203.06 203.19,532.34 0,735.4 -203.06,203.16 -532.21,203 -735.27,-0.06 -109.53,-109.53 -288.64,-109.47 -398.04,0.06l-92.13 92.06c-60.32,-27.41 -127.13,-42.66 -197.39,-42.66 -1855.25,0 -4042.48,0 -5897.69,0 -264.36,0 -480.78,216.33 -480.78,480.78 0,264.49 216.95,480.91 480.78,480.91l568.15 0c-646.1,623.59 -1048.16,1498.57 -1048.16,2467.53 0,1893.9 1535.36,3429.25 3429.26,3429.25 968.96,0 1844,-401.98 2467.59,-1048.15l0 567.24c0,264.52 216.35,480.91 480.85,480.91 264.45,0 480.88,-216.39 480.88,-480.91l0 -2948.34 0 -2929.64 0 -18.8c0,-70.91 -15.58,-138.44 -43.47,-199.21 34.64,-32.2 45.59,-61.82 83.72,-26.63z"/>
  </g>
 </g>
</svg>
